<svg xmlns="http://www.w3.org/2000/svg" viewBox="0 0 28.01 28.01"><defs><style>.cls-1{fill:#fff;}</style></defs><title>Asset 2</title><g id="Layer_2" data-name="Layer 2"><g id="Ebene_1" data-name="Ebene 1"><circle cx="14" cy="14" r="14"/><path class="cls-1" d="M13.86,25.06a11.35,11.35,0,0,1-7.7-3.2A10.85,10.85,0,0,1,3,14.26Z"/><path class="cls-1" d="M18,14.06h-1.8l2.2-7.85.51-1.83a.94.94,0,0,0,0-.16,10.06,10.06,0,0,0-1.8-.71A10.86,10.86,0,0,0,14,3.06a11,11,0,0,0-10.7,8.6l13.1,13.1A11,11,0,0,0,25,14.06Zm-1,8.5L5.46,11.06a9.1,9.1,0,0,1,8.5-6,8.92,8.92,0,0,1,2.54.37l-2.66,9.34c0,.05,0,.11,0,.16a.7.7,0,0,0,0,.14s0,0,0,0a.65.65,0,0,0,0,.2c0,.06,0,.12.05.18l.11.15a.57.57,0,0,0,.12.15.56.56,0,0,0,.15.1.52.52,0,0,0,.18.1l0,0a1,1,0,0,0,.3,0h8A9.05,9.05,0,0,1,17,22.56Z"/></g></g></svg>