<svg xmlns="http://www.w3.org/2000/svg" viewBox="0 0 61.77 46.02"><defs><style>.cls-1{fill:#231f20;}</style></defs><title>quote</title><g id="Layer_2" data-name="Layer 2"><g id="Layer_1-2" data-name="Layer 1"><path class="cls-1" d="M24.51,2Q7.14,7,2.6,22.68q4.34-7.23,12.23-7.24a13.45,13.45,0,0,1,10.22,4.44A15.6,15.6,0,0,1,29.2,31a14.93,14.93,0,0,1-4.12,10.7A14.13,14.13,0,0,1,14.37,46q-6.82,0-10.6-4.69T0,28.39Q0,6.73,24.21,0ZM57.08,2Q39.8,7.14,35.27,22.68q4.13-7.23,12.13-7.24A13.59,13.59,0,0,1,57.59,19.8,15.49,15.49,0,0,1,61.77,31a15.06,15.06,0,0,1-4.08,10.65A13.87,13.87,0,0,1,47,46q-6.82,0-10.65-4.61t-3.82-13Q32.57,6.77,56.88,0Z"/></g></g></svg>